<svg xmlns="http://www.w3.org/2000/svg" viewBox="0 0 343.6 74">
  <defs>
    <style>
      .cls-1{fill:#d2a68e}
    </style>
  </defs>
  <g id="Layer_2" data-name="Layer 2">
    <g id="Layer_2-2" data-name="Layer 2">
      <path class="cls-1" d="M187 4h8l12-1h7l20-1h-12a97 97 0 0111-1h6a13 13 0 004-1 42 42 0 01-9 1l-11 1 1-1-18 1h4l-28 2h5zM165 3l-9 1-15 1s-11 1-4 1l7-1-16 2 13-1 9-1h24l8-1h-3l-1-1-10 1 17-2h-30c9 1-7 1 10 1zM182 4zM106 54a29 29 0 005 0H90l-21-2 6 1 8 1a58 58 0 008 0h-3l10 1h1l27-2-20 1zM172 74l6-1-6 1zM132 53l8-1-8 1zM73 60h4zM324 42h1l1 10-3 1 3-1-1-10zM96 37l-19 1c2-1-7 0-3-1l-6 1h4l-21 2a166 166 0 0021-1h4l16-2zM249 61zM248 61h1-1zM129 53a17 17 0 013 0h-6zM114 55H93h21z"/>
      <path class="cls-1" d="M299 41c33 0-8 1 7 1h18c-13 0-12-1-11-1h-12l24-1 1 14a106 106 0 01-7 1l7-2-1-12a51 51 0 00-7 0h7l1 12-7 1-25 3a170 170 0 01-20 0l-18 2h23-3l11-1 7-1h10-6l25-2-3 1 6-2-1-14h-25l8-1-24 1-27 1h3-13l-23 2-25 3-15 2-14 1-30 3h7c6 0 8 0-1 1l20-2c-6 1-7 1 6 1a331 331 0 0044-5l42-5h15l22-1-22 2 23-1zM222 47h0zM270 43h3zM137 54l-6 1 4-1h2zM130 53h1-1z"/>
      <path class="cls-1" d="M225 53h-3a31 31 0 003 0zM314 54a34 34 0 007-2 27 27 0 014-1v-8h-7 5-46-7l-24 2-22 2c3 0-10 2 8 0h-2l26-2c6 0-10 1-4 1l24-2c8 0 15 0 14-1a111 111 0 0114 1l21-1v8a208 208 0 01-22 2l-10 1 21-1zM156 53h2zM43 51l-5 2a19 19 0 00-7 1l-2-6a1 1 0 001 0v-1h1a8 8 0 001-2 12 12 0 001-1 20 20 0 002 0l2 1h4l11 1 25 3h-2a280 280 0 0053 0h23l-7 1a31 31 0 004 0c-4 0 4 1-15 1-7-1 13 0 9-1h-13l-17 1c-15 0 1-1-9-1l-6 1h-8l-8-1H70 57l-4-1-7-1-8-1h6l8 1 17 2c-7-1-2-1 3-1l8 1c-6 0-18-1-26-3l2 1-6-1h-7a64 64 0 01-7-1l-1-1h-2a6 6 0 01-1 0l-1 1v1h-1v1h-1l1 5h1a9 9 0 013-1c1 0 0 0 0 0a34 34 0 016 0 14 14 0 013-1zm-12 2l-2-5a1 1 0 001 0v-1a10 10 0 002-2v-1h1a21 21 0 003 1l-3-1a6 6 0 01-1 0v1l-1 1-1 1a1 1 0 010 1h-1l2 5zM44 11h2zM307 44h-5 5zM194 48h-8 8zM88 26h2zM73 29h4a35 35 0 00-4 0zM195 48h-1zM311 34h-3 3zM318 36h-3zM144 38h-7 7zM300 36h-1 1zM87 10h-1zM103 8l6-1-6 1zM171 24h0zM54 18l4-1-4 1zM58 17l4-1-4 1zM126 34a18 18 0 00-2 0 8 8 0 002 0zM114 7c1 0 27-2 5-1l20-2h1l-11 1 10-1c-7 0 9-1-1-1a962 962 0 00-15 2l-4 1-29 2 24-2c12 0 4 1-5 1h5zM98 13h1zM145 49h-2 2zM83 11zM198 48zM212 37a1 1 0 00-1 0h1zM198 48zM215 37zM265 38h1zM159 22zM198 48zM138 40h1zM112 40h1a359 359 0 01-11 1h19c-10 0-1 0 7-1 6 1-2 1 4 1h15-13l4-1h-26zM113 40h4a34 34 0 00-4 0zM22 35a5 5 0 01-1 0v3a18 18 0 012 0 18 18 0 00-2 0v-3a4 4 0 001 0zM81 55l-6-1h-7l12 1zM265 17h1v-1a12 12 0 01-2 1h-1a12 12 0 003-1v1zM98 41zM264 16a48 48 0 01-5 0h-11 16zM248 16z"/>
      <path class="cls-1" d="M89 55h4-2l9 1h4a11 11 0 00-2 0h3l16-1 14-1a1884 1884 0 0111 0h13a228 228 0 0028-2l-11 1 24-1a141 141 0 0016-2h15c-9 0 6-1 0-1l13-1h-1l34-3h48v4l-6 1h-13l-12 1-11 1 19-1a18 18 0 014 0h6l-20 1-22 1h3-48a5 5 0 001 0h-31 2-26c-19-1-39 0-51 1l-12-1c7 0 16 0 14-1l-15 1 10-1h-12-1-5a15 15 0 00-6 0 4 4 0 001 1 7 7 0 002 0 4 4 0 001 0l6 1h5a91 91 0 0110 1l15 1-11-2a35 35 0 016 1h10l20 2c8 1 17 0 13 1l47-1h39c6 0 18 0 11 1l56-1h-10 20a22 22 0 018 1l2 1-2 1a5 5 0 01-2 1 18 18 0 01-3 0h-2-3l-11 1a26 26 0 005-1 40 40 0 01-5 1l-10 1h3l-16 1-15 1-15 2-14 1-60 5 13-1 4-1-12 1-21 1h-32l-36 1 36-2h-9l16-1h-19 7-16l71-1h-3l21-1h-9l8-1 16-1 20-1 11-2s-1 0 0 0l12-1h8l13-2h6l7-1 14-1 14-2-4 1h8a10 10 0 002 0 4 4 0 000-1l1 4h-14l-12-1-59 2c-5-1 23-1 31-1h-16l20-1-33 1c1-1-1-1-7-1l-2 1a23 23 0 00-2 0h-24l11 1c-2-1 3-1 10-1-6 1 6 1 5 1h-38l-32-1h2l-41-1-10-1h-20l-5-1h-4a30 30 0 01-3 0 22 22 0 01-3 0l-1-1h-1a8 8 0 01-3-2l-5-5 7-2a19 19 0 016 0h42c-21 0 2 1-8 1h25c-16 0 6-1-10-1a1003 1003 0 0152 0h5c7 0-14 0 0 0l51-1c11 0-22 1-5 1l-26 1h20-2l69-3 13-3 1 8a988 988 0 01-62 0 43 43 0 00-7 1h12l-23 1h2l-14 2c-2-1-18 1-25 1l-11 2h-12l-26 2h-11c-20 0-34 2-53 1 1 0 4 0-1-1H77a22 22 0 00-4 0l-28-2 20 2h5a53 53 0 0010 1l8 1-24-1-16-2-14-1a78 78 0 0010 2l12 1 30 3-9-1h10l-10-1 14 1h13c-10 0-14-1-8-1h20-7 37l9-1 12-1-7 1 15-1h9l19-1 15-2-29 3h7l-13 1h-16 1-14c-2 1 7 0-3 1h24-16l-10 1a206 206 0 01-23 1c11 0-4 0-5-1l-20 1 4 1-10-1h-7l-19-1h6l5 1a244 244 0 01-26-3l-10-1-7-1-1-1h-2l-2-1h-3a8 8 0 01-1 0 8 8 0 01-1-1 10 10 0 01-1 0 10 10 0 01-2-2 9 9 0 01-2-2h-1v-1a10 10 0 01-1-2v-5l5-3a23 23 0 014-2l-1 1-3 2-5 2 1 5a10 10 0 000 1 10 10 0 001 1v1a8 8 0 001 2h1l1 1-1-1a12 12 0 01-1-1 10 10 0 01-1-2 10 10 0 01-1-2v-5l4-2a34 34 0 0112-3l9-1h-4a6 6 0 01-1 0 16 16 0 013 0h6l4-1-7 1h16l-9 1h-9l-8 1 7-1-6 1h-3a36 36 0 00-5 1 25 25 0 014-1 9 9 0 012 0c1 1 0 1-1 1s1 0 0 0a30 30 0 00-5 1 21 21 0 00-4 1l-4 2 1 3a8 8 0 000 2 7 7 0 001 1 9 9 0 000 1h1a7 7 0 001 1 6 6 0 001 0c0 1 0 1 0 0h-1l-1-1a5 5 0 010-1 6 6 0 01-1-1 7 7 0 01-1-2v-3l3-1a26 26 0 017-2 34 34 0 015-1h9l29-2h28l3-1c11 0 21 0 14 1a24 24 0 00-4 0 13 13 0 01-2 0l20-1c-20 1-1 1-5 2l20-1h28-1 26l15-2h-8 6c2-1-3-1-3-1l-36 1h13l-30 1-4-1-6 1h-6l15-1a67 67 0 00-8 0h-13l-4 1c2-1-15 0-3-1l19-1h-5 17-4 35l34-1-6 1 22-1c4 0 6 1-5 1h15c18 0 26-1 34-2l14-1h24-2 11v15h-56l-20-1 11-1 30 1-5-1 17 1c0-1-9-1-3-1l12 1 14-1V34v12l-6 1h-4 10V33l-23 1 6-1-22 1-17 1 44-1-22 2h-1c-4 1 0 1 0 2l35-2v8-8 8-8a125 125 0 00-3-1l-3 1h6v8h-27 11l-12-1a571 571 0 01-44 0h-3c4 1-15 1-21 2l-17-1c-3 1 1 2 9 2l14-1 23-1-5 1h21l-22 1h8-23-8c5 0 28 0 23 1h-39 1l-28 1h-35 22l-1-1c10 1 17 0 25-1l-36 1h-11l11-1h24-7a484 484 0 00-29-1l-16 3H99h1l-15-1c-6 0 4 0 0 0l-20-1 25 1h-3a260 260 0 0030 0c4 0-9 1 5 1l15-1s-16 0-10-1l-21 1 22-1c15 0 13-1 6-1 1 0-28 0-8 1a492 492 0 01-37 0h1l-15-1h7-20l-12-1c-2 0-10 0-3 1h13-18c-8 0-6 0-5-1 1 0 1 0 0 0h-8l3 1-6-1h-3a15 15 0 01-6-2L0 34l19-4a34 34 0 019-1h7a363 363 0 0024 1l-16 1 7-1 15-1H50l-12 1h-6l-5-1a31 31 0 00-8 1L3 35l14 7a12 12 0 005 1 22 22 0 002 0h10l9 1h8l-13-1-4-1h-9a24 24 0 01-3 0 12 12 0 01-4-1L6 35l13-3a32 32 0 018-1h6a79 79 0 008 0h9-1c13-2 8-1 16-1l11-1h14l-1-1 16-1h1l-19 1 13-2c-12 2 8 0 9 1l8-1h-2 7l7-1h-11a189 189 0 002 0l12-1 21-1-7 1-3 1-14 1a31 31 0 014 0 89 89 0 00-11 0l-13 1h6 5l7-1h8l-1 1 15-1h-1l27-2 20-2 5-1 7-1 7-1 14-2-13 1 23-3h2l12-2h7l1-1h2a9 9 0 003 0l1 10-37 1-37 1h-13l-39 2h-18l31-2c-1 1 9 0 0 1l27-1h-11c0-1 31-2 17-2l-37 2 23-2h-12l-9 1c-21 0-19 2-39 3 11 0-2 1 6 1H96l10-1h2l11-1c-3 0 6-1-8-1l-10 1H83h2-20-11 6l6 1 19 1 8-1H82h6a586 586 0 002 0 12 12 0 01-4 1H67l-10-2h-5l-5-1-12-3-4-2 2-4a8 8 0 013-3 12 12 0 013-1 28 28 0 015 0 28 28 0 00-4 0 11 11 0 00-5 2 7 7 0 00-2 2l-2 4 4 2 2 1-2-1-3-2 2-3a10 10 0 010-1 9 9 0 011-1 9 9 0 012-1 14 14 0 014-1 27 27 0 014-1l7-1a440 440 0 0020-2c1 0-7 1-1 1a174 174 0 0024-1 138 138 0 017 0h9L87 9l-1 1-18 2 22-2-7 1h2a184 184 0 00-35 3c-2 0-1 0 0 0l-7 1a18 18 0 00-4 0 8 8 0 00-1 1 5 5 0 00-2 1v1a27 27 0 0012 2l6 1h6-4a329 329 0 0041 0v-1h7l23-1h-8c-2 0-17 0-15 1H80c10 0-6 0-8 1l-8-1h-4a79 79 0 008 0c5 0 1 0-3-1s-8 0-2 0h-6l-7-1c-4 0-9 0-12-2v2a3 3 0 012-1 13 13 0 013 0l3-1h3l12-2-9 1 25-2-18 2 8-1h9l20-2h-9l37-2-34 2c-10 1 6 1-4 2l12-1h4a343 343 0 01-40 3 24 24 0 002 0h-7l-7 1-3 1h-4a14 14 0 00-3 0 4 4 0 00-1 1l-1-4h1-1l1 4h1a10 10 0 011-1h4a21 21 0 01-3 0 9 9 0 00-2 1l-2-5a13 13 0 003 1 12 12 0 01-3-1l2 5v1l1-1a3 3 0 00-1 1v-1l-1-5 11 2c2 0 1 0 0 0l-2 1h9a98 98 0 0012 1c-14-1 4 0 9-1h-3a65 65 0 0112 0c-6 1-12 0-10 1h12-4 19l11-2h15-2l29-1c6 0-43 3 0 1 16 0 10-1 19-2 0 0-1 0 0 0l14-1-13 1 21-1h8l36-1 24-1h33l-31 11a20 20 0 01-5 1h-4 3a24 24 0 006-1l30-10h-32 30l-28 9a17 17 0 01-4 1h-2 2a24 24 0 003-1l-2 1a11 11 0 003-1l28-9h-30-2c-5 0-10 0-9 1h34l-22 7a14 14 0 01-2 1 17 17 0 002-1l23-8-24 1h-2 24l-21 7a19 19 0 01-5 1h-4l-8 1h2l-34 4-17 2-15 2-28 3-20 2a555 555 0 01-12-1l19-1h4c22-2-3-1 4-2l-17 2-14 1-23 2-12 1c9-1 9 0-3 1h1l-32 2h-7a60 60 0 01-11 0l-5-1-9 1 1-7a8 8 0 002 0h2l2 1h21l16 1c6 0 8 1 1 1l16-1h8l15 1h-7 73c-9 1 32 1 36 2l10-1a68 68 0 009 1c-10-1 7-2-12-1l43-2v1h-17-10c30 0-4 1 27 1h9 8c11 1-18 0-9 1l-29 1c20 1 18-1 39-1l2 1 12-1h7l32-2h-57l28-1v1l33-1-8 1 10-1v9l-31 1a341 341 0 00-18 1l-20 1h-6l-29 1 14-1h-29a443 443 0 00-17 1h-13l-3 1c-8-1-7-1 0-1h-23 34l-27-1c-8-1-15 0-31 1 0-1 5-1-1-1-14 0-4 1-8 1h22l-3 1h-11-19l9 1H96h3-13l12-1 21-1h-13c13 0 9-1 10-1l-30 1h2l-18 1h3l-14 1c-3 0-2 0-2 1h-4l-12 1a5 5 0 002-1l23-4H38a25 25 0 00-9 2v-1h1a12 12 0 002 1l3 1h2l10 1 21 3h-7l-11-1-13-2 5 1h10l-13-1-3-1h-3a15 15 0 01-3-1 5 5 0 01-1-1l-1 1c4-2 8-2 13-3h15a108 108 0 00-12 0h-8a24 24 0 00-8 2 2 2 0 001 1 9 9 0 002 1 24 24 0 003 1 136 136 0 00-1 0 21 21 0 01-3-1 6 6 0 01-1-1 2 2 0 01-1-1 2 2 0 000 1 6 6 0 002 1 14 14 0 002 1l5 1 10 1 20 2h3l-18-2 17 2h9-3 14zm110 17h0zm26-30h-53c31 1 53 2 1 2h-3a1073 1073 0 0051-1l11-1 3-1a11 11 0 001 0h-13zm12 1h10-11 1zm9 0h-2zM51 45h1-7 6zm21 0h2-7a18 18 0 005 0zm65 1l11-1 8-1h-17a11 11 0 01-3 0l6 1c-11-1-10 1-21 1h16zm18-27h-3 8l39-1h12-8c-36 3-19 0-48 1zm59 3a15 15 0 002 0l-22 3-21 3-17 1-14 1c3 1 18 0 26-1l-7 1h-4l-11 2 18-1 25-3a1157 1157 0 0118-3 61 61 0 00-8 1l-8 1c-2 0 14-2 4-1l21-3 19-2 2 1a51 51 0 008-2 77 77 0 0110-1c-14 2 3 0-9 2l12-1 2-1h2a22 22 0 005-1l10-3h-11a78 78 0 00-12 0c-6 0 6-1-5-1l-14 2 25-1-21 2a189 189 0 00-2 0l-4 1 23-1-1 1h11v-2a12 12 0 01-3 1h-3l-4 1-7 1a64 64 0 01-8 1l3-1-30 3zm34 20c-8-1-17-2-53-2h3-58l22-1h-12-17l8-1h18l28 1c-1-1-24 0-14-1h-20c10 0 3-1 9-1h-15c-1 0 23 0 10-1l-24 1h-20 17c3 1 24 0 18 1h-12l-9 1H96l-24-1-24-1h-9a79 79 0 008 0l3 1-14-1h1l-7-1h-7 13-7l-3-1a24 24 0 01-4 0 5 5 0 002 0 8 8 0 01-3 0v3a30 30 0 015 0l3-1h4c7 0 3 0-2-1H21h20l20-2-6 1h14c-1-1 17-2 27-3 5 0 6 0-4 1l19-1 10-1 7-1-45 2h3l-25 2-18 1c0-1-4 0-3-1H28h2l-10 1-4 1 3 2a14 14 0 006 1h39l15 1H60l9 1h-1 8l34 1h41c-19 1 16 1-6 1l29-1-12 1c26 0 44-2 69-1h1zm49-1h15-1l14-1c-9 0-15 0-2-1-1 1 2 1-2 1h13-9 9l-7-1h7v2h-13-11l-24 1h8l-18 1 8-1h-21 1l-8 1h5l-11 1h8-12l40-1h-6 31l23-1v-4l-7 1c2-1-13-1-20-1-7 1-30 1-23 2h19-12 8c-4 0-4 0-2 1zm-195-2z"/>
      <path class="cls-1" d="M94 10c3-1 12-1 10-2 0 1-15 1-10 2zM104 9h4l-10 1zM115 12l17-2c4 1-14 1-17 2l17-1 16-1a255 255 0 00-33 2zM108 13h9-10 1zM152 26l9-1-9 1zM289 64h46a14 14 0 015 0v-6a2 2 0 010-1 5 5 0 010-1 8 8 0 01-1-1v-1a5 5 0 01-1 0h-7l-3 1 6-1h4a9 9 0 001 0v1a5 5 0 001 1 5 5 0 000 1v7a10 10 0 00-3 0h-18zM161 25l21-3 22-2a977 977 0 00-51 5zM167 22c3 0-14 1-11 2l16-2zM248 23l-5 1h4l1-1zM86 27h2l-9 1 7-1zM90 27h-2zM241 26l8-1 4-1-12 2zM170 30l7-1c-1 0-11 0-7 1zM32 30H22h11zM114 35c5 0-14 1-4 1 9-1 5-1 4-1zM31 37zM31 37h-5a28 28 0 01-5-1 23 23 0 006 1h4zM75 39h-3-8 11zM237 48c-13 0-16 0-15-1l-18 1h33zM204 48h-5 5zM24 33l2-1h6-6zM256 48h0zM207 41h-13 13zM292 46h0zM230 41h-11 11zM199 36c-10 0 15 1-2 1 22 0-1-1 15-1h-13zM212 36h4zM318 42l3-1-3 1zM263 36l-15 1c10-1 35-1 34-2l-22 1zM236 35h6-8 2zM233 35h0zM322 39h-13 13zM191 37h11-12 1zM142 36h-10l2 1 8-1zM206 49a81 81 0 009-1h2-14a20 20 0 005 0h7l-9 1z"/>
      <path class="cls-1" d="M275 54l-10 1h-9l5-1-12 2c-8 0-5-1 1-1l19-2-19 1-19 2h11l-27 2c8 0 4 1-2 1l-2 1h-2 3l23-2 9-1 20-2h59l1-1h1l-2-14a164 164 0 01-16 2 648 648 0 01-88 3h-35 20c-10 1 12 0 9 1h-16l4 1 38-1h5-3 26-1l34-2h-1l16-1 9-2 1 12h-18l13-1-19 1c0-1-1-1 5-1l-34 1c-8 1 2 1 3 1zM231 56l-6 1zM174 45h10-10zM181 61a411 411 0 0016-1h2l-18 1zM204 61l5-1-11 1h6z"/>
      <path class="cls-1" d="M201 50h3l6-1-9 1zM260 46l-16 1 16-1zM248 44l9-1-9 1zM101 47h-5 5zM183 46c-23 0 15 0 8-1h-12 1-16l5 1-21-1h-23 2-33a16 16 0 00-3 0l-11 4 8 8a11 11 0 002 1l1 1a15 15 0 003 1 28 28 0 004 1h5l12 1h9l2 1 12 1c14 0-8-2 3-1l-13-1-7-1h-6l-11-1h-2-1a6 6 0 00-2 0h1a11 11 0 00-3-1 24 24 0 01-3 0h-1a9 9 0 01-1-1h-1l-1-1h-1v-1l-7-7 9-2a20 20 0 016-1 23 23 0 00-3 0 15 15 0 00-3 0l-10 3 7 7 1 1a6 6 0 001 1 10 10 0 001 0 10 10 0 001 1 10 10 0 001 0 23 23 0 004 1 21 21 0 01-3 0 15 15 0 01-3-1l-1-1a10 10 0 01-2-1l-7-8 10-3a17 17 0 014-1h21l17 1h-32 2v1h-2 41l41-1zM285 64zM275 64h-13 23-13zM246 65c11 0 10-1 4-1h13-16zM164 64h3-8zM167 64h8a9 9 0 00-3 0zM195 65h11zM186 64l9 1zM175 64l13 1-2-1zM318 42h7l1 10h-3 3l-1-10h-8 1zM281 55zM244 59c-10 0 14-1-5-1l16-1c-1 1-9 1-3 1 6-1 8 0 6-1 10 0 11-1 18-2a738 738 0 01-53 2c-8 1-3 2-3 3l24-1zM260 60l9-1-9 1z"/>
      <path class="cls-1" d="M151 53c-1 0-10 0-8 1l13-1a31 31 0 01-5 0zM162 53h-6 6zM150 53h0zM226 65h9-9zM239 63h-5 5zM161 74a6 6 0 01-1 0 5 5 0 001 0zM160 74h-25 25z"/>
    </g>
  </g>
</svg>
