<svg xmlns="http://www.w3.org/2000/svg" viewBox="0 0 276.9 112.9">
  <defs>
    <style>
      .cls-1{opacity:0.3;fill:#A5A58D}
    </style>
  </defs>
  <g id="Layer_2" data-name="Layer 2">
    <g id="Layer_2-2" data-name="Layer 2">
      <path class="cls-1" d="M131 26l5 1h9l4 1 13 2-8-1a15 15 0 013 0l5 1a30 30 0 004 0 5 5 0 003 0 18 18 0 01-6-1l-8-1h1l-12-1h3c-17-3-5 0-19-2l3 1zM117 22h-7l-10-2h-2l4 1-11-1 15 2 16 3h5-2v-1l-7-1 12 1c-4-2-15-3-20-4 6 1-5 0 7 2zM127 25h1zM67 63a14 14 0 003 1l-14-3a132 132 0 01-13-5c0 1 8 4 3 2a42 42 0 006 2 26 26 0 004 1h-2l7 2q9 2 19 2l-13-2zM107 92h4-4zM84 66h6-6zM43 64l3 1zM214 82h1l44 7-45 3-1 1 1-1 47-3-46-7zM63 45l-12-2c1 0-5-1-2-1h-4 2c-7 0-3 1-14-1a88 88 0 0014 3h3l11 1zM161 90zM160 90h1-1zM82 66a8 8 0 012 0l-4-1z"/>
      <path class="cls-1" d="M72 65l-11-2h-4l15 2zM197 78c22 4-5-1 5 2l12 2-7-2c1 0 1-1-8-3l16 3 57 12-58 2h-5l5-1 52-5-51-7a27 27 0 00-5-1l5 1 53 7-54 5-5 1-17-2a79 79 0 01-13-2l-13-1 6 2 9 1h-1a402 402 0 0012 1l7 1h-4l17 1h-2 4l63-7-62-8-17-3h6l-16-3c-6-2-13-2-19-3l2 1-9-2-15-1-18-1h-9l-10-1h-10l-10-1 4 1c4 1 6 1-1 1a50 50 0 006 0 58 58 0 018 1c-4 0-5 0 4 2a159 159 0 0030 1l29 1 10 2 15 2-15-2 15 3z"/>
      <path class="cls-1" d="M145 73h1a17 17 0 00-1 0zM178 75h2zM87 68l-4-1 3 1h1zM82 66h1-1zM146 79h-2a13 13 0 002 0z"/>
      <path class="cls-1" d="M206 92a17 17 0 005 0 13 13 0 013-1l37-3-37-5-4-1 3 1-31-6-4-2a120 120 0 00-17-1l-15-1c2 0-7 0 5 1h-1l18 1h-3l17 2c6 0 10 2 9 2a50 50 0 019 2l14 2 30 6-30 2a99 99 0 01-16-1h-7a129 129 0 0015 1zM100 70h1zM25 52a19 19 0 00-3 1 9 9 0 00-2 0 4 4 0 00-1 0l-1-6a2 2 0 001 0 3 3 0 001-1l1-1 1-1h1v1h1l2 1 3 1 4 2 16 5h-2a131 131 0 0014 4l5 1a234 234 0 0026 5l5 1-4-1a14 14 0 002 1l-10-1c-4-1 9 2 6 0h-4l-4-1-12-2c-10-2 1-1-6-2h-4l-5-1-5-2-6-2-1 1-9-2-2-2-4-2-6-2a32 32 0 004 1l6 2 10 4c-4-2-1-1 2 0l6 2-17-6h1l-4-1-4-2h-2l-1-1h-1l-1-1a4 4 0 01-1 0l-1 1a3 3 0 01-2 1l1 5a3 3 0 011-1v1a13 13 0 015 0zm-6 0l-1-5a2 2 0 001-1h1l1-1h1v-1a5 5 0 001 1 11 11 0 01-1-1l-1 1a11 11 0 01-1 1 3 3 0 01-2 1l1 5zM34 13h2zM202 82l-3-1 3 1zM126 69l-5-1 5 1zM60 33h1zM50 34l3 1a17 17 0 00-3-1zM127 69h-1zM207 72h-2 2zM212 75h-3zM95 53l-4-1 4 1zM199 73s1 0 0 0zM63 18zM74 18h4-4zM117 43l3 1c2 0 2-1-3-1zM40 21l3-1-3 1zM43 20h0zM85 47a10 10 0 00-1 0 3 3 0 001 0zM82 19s18 1 3-1l14 1c-3 0 1 0 0 0l-7-1 7 1c-4-1 6 0 0-1a881 881 0 00-35-3l24 3h-3l-19-2 16 2h-3a23 23 0 013 1zM70 22h1zM94 64h-1 1zM60 18zM129 71zM141 61a1 1 0 00-1 0h1zM129 71zM142 62zM176 70zM109 40zM129 71zM90 54l1 1v-1z"/>
      <path class="cls-1" d="M73 50h1l-11-2-8-1 7 2 4 1 13 3c-7-2 0-1 4 0l3 1 10 2-8-2h2l-17-4z"/>
      <path class="cls-1" d="M74 50l3 1a15 15 0 00-3-1zM15 33l-1 3a9 9 0 012 0 9 9 0 00-2 0l1-3zM50 61a67 67 0 00-1-1zM179 50h2v-1a5 5 0 01-1 0h-1a5 5 0 002 0v1zM63 50a21 21 0 003 0h-3zM179 48a23 23 0 01-3-1l-7-1 10 2zM169 46z"/>
      <path class="cls-1" d="M55 62l2 1h-1l6 1 3 1a5 5 0 00-1-1l2 1 10 1 10 2a539 539 0 017 1l9 2a105 105 0 0013 2l-7-1a227 227 0 0013 1l-8-1 16 2a64 64 0 0011 1c1 1 2 2 10 2-5-1 5 0 0-1l9 1 23 2 17 3 15 3 15 3-15 1h-4l-9-2a82 82 0 01-8 0h-8l13 1a9 9 0 013 1h4l-14-1a136 136 0 01-15-3l2 1c-8-2-10-4-25-6l-7-1a3 3 0 001 0l-21-4h1l-19-4h3l-35-6-8-2 10 1-10-2 7 1-8-2h-1-1a19 19 0 01-3-1 7 7 0 00-3 0 3 3 0 001 1 2 2 0 001 0l4 2 3 1a45 45 0 016 2l5 1 5 2-7-3a16 16 0 014 1l7 2 13 4a1161 1161 0 0039 9l26 5c4 1 12 3 7 3 15 3 23 3 38 7l-6-1 9 1 4 1a11 11 0 015 2l1 1-1 1a3 3 0 01-2 1 8 8 0 01-2-1h-1-6l-4-1a13 13 0 004 0 19 19 0 01-4 0h-5l-11-1a88 88 0 00-10-1h-10l-10-1-40-3h12l-9-1a145 145 0 01-14-2h-1l-21-4-23-5 24 4-6-2 10 2-12-3 5 1-11-2 11 1c5 0 8 2 12 3l24 4h-2l15 2-6-1h5l11 1 13 2h8l1-1 7 1 6 1 8 1h10l9 1h10-3l3 1h2a3 3 0 001 0 1 1 0 000 1v3a8 8 0 00-4-1l-1-1h-3a78 78 0 01-8-2l-40-7c-3-2 16 2 21 3l-11-2a110 110 0 0013 2l-21-4-5-1h-1a12 12 0 00-2 0l-16-3 8 2 6 1 4 1-24-5-2-1-22-4h2l-27-7-6-2-3-1-3-1-13-3a14 14 0 01-3-1 13 13 0 01-2-1 8 8 0 01-2-1 7 7 0 01-1-3l-2-4 5-1a9 9 0 013 0 17 17 0 012 0l2 1h1l8 2 14 2-10-1 13 3-6-1 17 4c-10-3 4 0-7-2a463 463 0 0135 7h3c5 1-9-1 1 1 9 1 29 6 33 5 8 2-14-2-3 1l-18-3 7 2 7 1-2-1 22 4 13 2 12 1a62 62 0 008-1v8l-29-5-3-1c-2 0-4-1 0-1l-14-1 8 1-16-2h2-10l-17-2h-7l-9-1a137 137 0 01-17-2l-3-1-5-1-35-6s3 0-1-1l-6-1-5-2a11 11 0 00-3-1l-18-5 5 2 7 3 4 1a26 26 0 006 2l6 1-16-4-10-4-5-1-3-1-1-1h-1l1-1 1-3-2 4h1a36 36 0 006 3l8 3a178 178 0 0019 7l-6-2 7 2-7-3a96 96 0 0010 3l8 2-5-2 14 3c-4-1-8-2-5-2l13 3 12 3h6c4 0 7 2 8 1l-5-1 11 2c9 2-9-1 6 2a111 111 0 0012 1h11a144 144 0 01-20-1l5 1-9-1-12-2h1l-9-2c-1 1 5 1-2 1l16 2-11-1-6-1a95 95 0 01-16-2c8 1-3-1-3-1l-14-3 2 1-6-1-5-2-12-4 3 2 4 1a119 119 0 01-17-6l-3-2-4-1-4-2-1-1h-1a21 21 0 01-3-2 10 10 0 01-2-1v-1a11 11 0 01-1-1l-1-1a11 11 0 01-1-1 9 9 0 010-4v-4l4-2a15 15 0 014-2l-1 1-2 1-4 2v4a13 13 0 000 2 11 11 0 000 1 11 11 0 001 2 8 8 0 01-1-1 6 6 0 010-1 9 9 0 010-3v-4l4-2a18 18 0 015-1 24 24 0 014 0l7 1-3-1a9 9 0 012 0h3l3 1-4-1c4 1 8 3 11 2h-7l-6-1h-6 5-6a19 19 0 00-5 0 15 15 0 014 0 5 5 0 012 0l-1 1c-1 0 0 0 0 0a17 17 0 00-5 0 13 13 0 00-3 1l-2 1-1 3a6 6 0 001 3 8 8 0 000 1 6 6 0 001 1 14 14 0 01-1-2 7 7 0 010-3v-2l3-1a16 16 0 015-2 17 17 0 014 1h6l20 2 19 4h1l10 2a12 12 0 00-3 0 5 5 0 01-1 0l13 2c-14-2-1 1-3 1l13 2h3l16 4h-1l18 3h10c-9-1-4 0-4-1a26 26 0 002 1l-2-1-24-4 9 2-20-4-2-1-4-1h-5c4 0 2-1 11 1a31 31 0 00-6-1l-8-2h-3c1 0-11-2-2-1l13 2-4-1 12 2h-3l11 3 12 2 23 4c-8-2-1 0-4 0a113 113 0 0015 2h-4l10 2a203 203 0 0023 3h4l5 1 16 3h-1l8 1-3 15-38-8-13-3h7l20 5-3-1 12 3c-1-1-7-2-2-1l7 2 10 1 2-11-7-1a58 58 0 018 0l-3 13-4-1h-3l7 1 3-13-16-3a38 38 0 014 1l-15-3h-4l-7-1 30 5a117 117 0 00-16-1 7 7 0 00-1 0c-2 0 0 0 0 1l24 4-2 7 2-7a64 64 0 00-11-3l9 2h-2 4l-2 9-18-4a59 59 0 008 1l-8-2h-3l-27-6-1-1-15-1-11-3c-2 0 0 2 5 3l10 1 15 2h-3l14 3-14-2 5 1-16-3-5-1c3 1 19 4 15 4l-26-6h1a157 157 0 00-19-3l-16-3-7-1 14 3v-1l17 3c-8-2-22-5-24-4l-5-2h5l1 1a133 133 0 0114 2h-4a246 246 0 00-19-5H92a828 828 0 01-23-4l-3-1-3-1h1l-11-2c-4-2 3 0 0-1l-12-3c1-1 11 2 16 4l-2-1 11 3 9 2 4 1 9 2-6-2-14-3 15 3c10 1 9 0 4-1 1 0-19-3-6 0l-11-2-4-1-3-1-6-1-9-2h4l-13-3-8-2c-2 0-7-2-2 0l8 2-7-1v-1a196 196 0 01-8-2s1 0 0 0l-2-1-3-1 1 2-3-1a23 23 0 01-2-1 11 11 0 01-5-3L0 29l13-2a20 20 0 017 1l3 1h2a132 132 0 0026 4 450 450 0 00-10 0l-10-1h4l11 1-11-1a214 214 0 01-12-2l-3-1a18 18 0 00-7-1L2 30l7 8a9 9 0 003 2 12 12 0 003 1h1l1 1 4 1 5 2c1-1 5 1 6 1a76 76 0 00-8-3l-3-1-3-1h-1l-1-1h-1a14 14 0 01-2-1 8 8 0 01-3-2l-6-6 9-2a18 18 0 017 1h2l2 1h-2-1a67 67 0 008 1l6 1 10 1 8 1 9 2-1-1 11 1h1l-13-2h9c-8 0 5 1 6 2h5-1a35 35 0 005 1l5 1-8-2-9-1 10 1 8 1 15 1-5 1h-2a87 87 0 01-10-1 14 14 0 013 0 16 16 0 00-3 0h-2l-2-1h-9l4 1h8l6 1-2 1 11 1h-1l19 2h16a87 87 0 0010 0h10-9 9l7-1 1 1h13a13 13 0 011 0h1a3 3 0 001 0v10l-25-4c-10-1-11-3-25-4l-7-1c-1 0 9 1-1-1-8 0-18-3-27-4l-12-2 21 3c-1 0 6 1 0 0l18 3-7-1c0-1 21 3 11 0l-25-3 16 2-8-2h-6c-14-3-13-2-27-3 8 1-1 0 4 2l-15-4c8 2 9 1 9 1l7 1c-2-1 4-1-5-2l-7-1h-1l-11-2h1a63 63 0 00-7-2 34 34 0 01-6-1h-2l-3-1-1-1h-2l2 1 2 1 4 1a100 100 0 0013 4h6l-8-2 4 1 8 2-10-1-7-2-5-1-6-3h-2l-1-1-4-1a22 22 0 01-4-2 15 15 0 01-4-3l-2-3 2-2a8 8 0 012-3 8 8 0 013-1 11 11 0 012 0l2 1a15 15 0 00-3 0 8 8 0 00-4 1 7 7 0 00-2 2l-1 3 1 1c2 2 2 1 1 0l-2-2 1-2a7 7 0 013-2 8 8 0 014-1 16 16 0 012 0 6 6 0 011 0h5c-1 0-3 0 0 0h7a56 56 0 017 1s-6 0-1 1a82 82 0 0015 2l6 1h-1l7 1a66 66 0 01-9-1 69 69 0 00-8-1v1a124 124 0 00-13-1l15 1h-5 2a88 88 0 00-11-1h-6l-7-1c-2 0-1 0 0 0h-5a8 8 0 00-3 0 4 4 0 00-2 2 14 14 0 007 4l4 1 3 1h-2l11 3 16 2 5 1 15 2-5-1-10-1-16-4c6 2-4 0-5 0l-5-2-3-1a37 37 0 005 2l-2-1c-3-1-5-2-1-1l-4-1-4-1c-3-1-6-2-7-4v2a2 2 0 011-1 4 4 0 011 0h13-6a138 138 0 0117 1l-12-1 5 1a43 43 0 016 1l14 1-6-1 25 3-23-2h-3a57 57 0 008 1l3 1-13-1-15-2a14 14 0 002 0H35l-2-1a3 3 0 00-2 1v-4 4a2 2 0 011 0 11 11 0 012 0 13 13 0 01-2 0 2 2 0 00-1 0v-4a6 6 0 001 1 6 6 0 01-1-1v4h1a2 2 0 00-1 0h1v-5l5 3v1h-1l6 2a44 44 0 007 2c-4-1-4-1-1-1l7 2-1-1a30 30 0 017 2l-6-1 7 1h-2l12 3 8-1a77 77 0 0010 2h-1l11 2a80 80 0 008 1c4 1-29-3 0 1 11 2 7 0 13 1l9 1a80 80 0 00-8-1l14 2 5 1a240 240 0 0025 4l16 3 22 4-22 6a12 12 0 01-4 1h-1-1 2a14 14 0 004-1l21-5-21-5h0l20 5-20 5a11 11 0 01-3 0 11 11 0 01-1 0h1a11 11 0 003 0h-2a6 6 0 002 0l20-5-20-4-2-1h-6l8 1 15 4-15 4a9 9 0 01-2 0 9 9 0 002 0l16-5-16-2-2-1 2 1 14 3-14 4a11 11 0 01-4 0h-3l-5-1 2 1-6-1h-24l-6-1h-10l-19-1-14-1-11-1c3 0 5 0 3-1l13 1c1 0 7 1 3 1 15 1-2-1 3-1l-12-1-9-1-16-1-8-1c6 1 6 2-3 1h1l-21-3h-6a29 29 0 01-7-2l-3-1-3-1a7 7 0 00-3 0l2-6h2l1 1 5 1 9 2 10 3c4 1 5 2 1 1a72 72 0 0010 2 51 51 0 016 1l10 2h-5l7 1 7 2 14 2 21 4c-7 0 20 6 23 8l7 1a31 31 0 006 1c-7-2 5 0-8-2 7 0 15 1 29 4h-1l-11-2-7-1c21 5-2 1 19 5l6 1c-3-1-3 0 1 1h4c7 2-12-2-6 0l-20-3c13 3 12 1 26 5h1a71 71 0 009 1l4 1 22 3-38-8 19 3 22 5-6-1 7 1-2 9c-7-2-13-3-21-3l8 1a267 267 0 01-15-2l-4-1-14-2-4-1-19-3 9 1-19-4a568 568 0 00-12-1l-9-2h-2c-5-1-4-1 0-1l-15-3 23 4-18-4a183 183 0 00-21-4s4 0 0-1c-10-1-3 1-6 1a105 105 0 0115 3h-2l-6-2-2 1c1-1-6-3-12-4l6 3c-9-1-9-3-19-4h2l-9-1h8l14 2-8-2 7 1-21-3h2l-12-1h2l-10-2c-2 0-1 1-1 1h-3-3l-5-1h1l9-1 8-1-13-2-6-1a11 11 0 00-6 1l1-1a5 5 0 001 1 20 20 0 003 2 61 61 0 006 3l14 5-5-1-7-3-8-3 2 1 5 2c4 1 6 2 2 0l-8-3-2-1a16 16 0 01-2-1l-2-2h8l10 1a48 48 0 00-7-1 46 46 0 00-6-1 12 12 0 00-6 1 3 3 0 001 2 11 11 0 002 1l4 2-4-2a9 9 0 01-2-1 3 3 0 01-1-2v-1h1a11 11 0 00-1 0v1a2 2 0 001 1 6 6 0 001 2 21 21 0 003 1 57 57 0 006 3l13 5 2 1a465 465 0 015 0h-1 3l6 2zm71 32a8 8 0 001 0h-1zm22-26l-35-7 21 6-20-4h-3a341 341 0 0035 5l7 1h3l-9-2zm8 3l7 1-7-1c1 0 1 0 0 0zm6 1l-1-1zM32 47h1l-5-1 4 1zm14 3h1l-4-1a9 9 0 003 1zm43 10h7l6 1-4-1-7-2a5 5 0 01-2 0c3 1 4 1 3 2-7-3-6-1-14-3l11 3zm17-24h-2 6l26 5a61 61 0 018 2l-6-1c-24-3-12-3-32-6zm40 12a7 7 0 001 0h-15l-14-1-12-1-10-1a77 77 0 008 2l10 1h-5l-2-1h-8l12 2h17a537 537 0 0112 0 28 28 0 00-4 0h-3c1 0 3 0 0-1l14 1h13l1 1a24 24 0 006 0 35 35 0 017 0c-10 0 1 1-7 1h11a11 11 0 004 0l7-2-8-2a39 39 0 00-8-1l-4-1-9-1 17 3-14-2 6 1h-8l-3-1 16 3-1 1a59 59 0 008 1v-2a5 5 0 01-1 1h-10a30 30 0 01-6 0l2-1h-20zm17 23c-5-2-10-4-35-9h2c-12-3-24-3-38-7l15 1-8-1-11-3 5 1 12 2c-2 0 11 4 19 5-1-1-17-4-9-3l-14-3 7 1-11-2c0-1 15 2 7 0l-16-3-13-2 5 1 9 2c3 1-7-2-3 0l11 2-7-1-6-1-15-3-1 1-5-1c-3-2-10-3-16-5l-16-5-6-1a37 37 0 005 2h3l-10-2h1l-5-2h-2a9 9 0 01-2-1 21 21 0 003 1l3 1h2l-4-2-4-1h1a2 2 0 01-1 0l-1 3a13 13 0 013 0l3 1h2c5 0 3 0-1-1l-4-1-2-1 6 1 7 1 14 2h-4l9 2 19 1h-3l13 2h7 4l-30-4h2l-17-2-13-1c1-1-2-1-1-1l-8-1h1c-2-1-5-2-8-1h-2l1 2a7 7 0 004 2l3 1 8 2 7 1h2l6 2 9 3-13-3 6 2c-2 0-3 0 0 1l5 1 23 5 27 6c-13-2 10 3-4 0 10 3 9 1 19 3l-8-1 46 9h1zm33 6l10 2h-1l10 2c-6-2-10-3-1-2-1 0 1 1-1 1l8 2v-1h-6l6 1v-1l-5-1h5v2l-8-1-8-2-16-2 6 1-13-2 5 1-9-2-5-1a9 9 0 012 0h-6c7 1 3 0 3 1l-7-2 5 2-8-1 27 4-4-1 21 4 15 2 1-3-5-1-13-3-16-2 13 3-8-2 5 2h-1zM68 48zM68 18l7 1-7-1zM75 19h3-8z"/>
      <path class="cls-1" d="M82 23a107 107 0 0111 1c2 2-9-1-12 0l12 1a98 98 0 0111 1 116 116 0 00-13-2l-9-1zM77 24h6-7 1zM103 42l6 1-6-1zM187 99l17 4 9 1 2 1h3a12 12 0 011 1v-1l2-5a3 3 0 010-1v-2-1h-2l-1-1h-5 5l3 1v2c0 1 0 0 0 0a2 2 0 000 1 1 1 0 000 1l-2 5a2 2 0 000 1 4 4 0 00-1-1h-3l-8-2zM110 42a480 480 0 0011 1 160 160 0 01-17-2zM114 40c2 1-9 0-8 1h12zM168 53h-3 3zM59 35h2l-6-1 4 1zM62 35zM164 54l5 1 3-1h-8zM115 48l5 1-5-1zM23 30l-1-1h-2a31 31 0 00-3 0h4l1 1h2zM77 46h-3 3zM20 36zM20 36l-3-1a7 7 0 01-3-1 4 4 0 002 1 13 13 0 001 0zM49 44h-2-1l-3-1h-1 2l5 1zM155 75l-10-2-12-2 22 4zM133 71l-3-1 3 1zM17 31h2l3 1-2-1h-2-1zM167 78l-5-1 5 1zM136 64l-8-1 8 1zM192 82l-3-1 3 1zM152 68l-2-1-5-1 7 2zM132 58c-7-1 10 3-1 1 14 4-1 0 10 2l-9-3zM141 61h3zM210 81zM175 67l-10-1 22 4-14-3zM157 63l4 1-5-1h1zM155 62l1 1zM213 79zM127 59l7 1-8-1h1zM95 51h-2l-6-1h2l6 1zM135 72l7 1-9-2 8 2-6-1z"/>
      <path class="cls-1" d="M179 87l-7-1a41 41 0 01-5-1h3-8c-5-1-3-1 1-1l12 1-12-1-13-1 7 1-18-1c5 1 2 1-2 1h-2 1c-1 0 0 0 0 0l16 1h6l13 2h6l2 1h-3l7 1h4l22 5h3l1-14a72 72 0 01-11-1 308 308 0 01-34-5l-24-4-23-5 13 4 6 1a101 101 0 01-11-2c-1 0 3 1 2 2 12 2 14 1 26 4-1 0-4 0 3 1h-2l18 3h-1l23 3h-1 16l-1 12-12-3 9 2-13-3h4l-23-3c-5 0 1 0 2 1zM150 83h-5zM114 64l7 1-7-1zM115 81h-4l8 1 7 1 2-1-13-1zM131 84a33 33 0 014 0l-9-1 5 1zM130 73h7-7z"/>
      <path class="cls-1" d="M171 77a83 83 0 00-11-1l11 1zM163 73h6-6zM65 56l-1-1h-2 2l1 1z"/>
      <path class="cls-1" d="M120 67c-15-4 10 1 5 0l-8-2h1l-10-2 3 1-14-4-15-3h1a20 20 0 00-3 0l-10-2-5-1h-1l-1-1a17 17 0 00-2 0 12 12 0 00-4 0l-8 2 3 7a11 11 0 001 2 10 10 0 001 1 11 11 0 002 2 15 15 0 003 1l2 1 1 1a118 118 0 0012 3l3 1 3 1 6 2c9 3-5-2 2 0l-7-3-3-1-4-1-6-2-5-2h-1a3 3 0 00-1 0l-2-1a13 13 0 01-2-1 9 9 0 01-2-2 9 9 0 01-1-1 10 10 0 01-1-1l-3-6 8-2a11 11 0 013 0 19 19 0 012 0 16 16 0 00-2 0 10 10 0 00-4 0l-7 1 3 7a12 12 0 001 1 12 12 0 000 2h1l1 1a14 14 0 003 2 12 12 0 01-3-1 10 10 0 01-1-1 9 9 0 01-2-4l-3-7 7-2a11 11 0 014 0 19 19 0 013 1h1l2 1a554 554 0 0120 4l-9-1-5-1-3-1h-2l-3-1h1v1h1a4 4 0 01-1 0h-1l14 2 13 3 28 6zM184 98zM178 97l-10-2 15 3h1a69 69 0 01-9-2zM158 94c7 1 7 0 3-1l8 2-10-2zM103 81l2 1-5-2zM105 82l5 1a4 4 0 00-1-1zM124 86l7 2zM118 85l6 1zM110 83l9 3-1-1zM210 82h5l40 7-41 3h-1 1l41-3-40-7-6-1 1 1zM184 89h-4 4zM158 87c-7-1 9 2-3-1l11 1c-1 1-6 0-3 1h5l12 1a345 345 0 01-36-6c-5-1-2 1-2 2 1 0 15 3 16 2zM169 90l6 1-6-1z"/>
      <path class="cls-1" d="M97 69l-5-1 9 2a15 15 0 01-4-1zM104 71l-3-1 3 1zM97 69zM145 91l5 1-5-1zM154 91l-4-1a33 33 0 004 1zM100 90a3 3 0 01-1 0 3 3 0 001 0zM99 90l-12-2-5-1 17 3zM204 15l1 2v-4l1 2 1-3h-1c-1-4 2 1 0-3h-1V8l-1 1V7c-2 0 1 6 0 8zM200 7l1 4h-1v4l1-1a3 3 0 010 3v2l1-1v-2a3 3 0 012 2v-3l-2-5v1l-1-6c-1-5-2-2-3-3l2 5zM204 15zM112 73v2l4-1-2-4c-1-1-1 0-1 2v-2c0 3-2-2-2-3l1 10v-4zM44 85a2 2 0 000-2 8 8 0 000 2zM112 79v3a21 21 0 000-3zM103 32a4 4 0 00-1-1l1 2v-1zM100 95h-1a1 1 0 001 0zM106 12v3l-1-2a2 2 0 000 1l1 9c1 2 1 0 1-2l-1-6zM58 57zM58 55v0zM111 77a23 23 0 011 2v-2a2 2 0 01-1 0zM110 67h1v-3a27 27 0 00-1 3z"/>
      <path class="cls-1" d="M103 97c-3 1-1-5-3-6v4c2-2 1 8 3 6 1 4 0 5-1 4-2-4 0-3-1-7v4c-2-1-2 5-5 0v5l2 3a3 3 0 011 3 6 6 0 010-2l1 1-1-5h2l-1 2c1 1 1-4 2-2a10 10 0 011 2l1-5 1 4c-1-5 2-4 4-2a4 4 0 01-1-2c1-1 2 1 3 4v-2a3 3 0 012 1l1-2-2-23a3 3 0 010 2l-2-7v6l-2-7-1 10a50 50 0 010 12c-1-3-3-2-4-2v-5a18 18 0 00-2 0z"/>
      <path class="cls-1" d="M107 86a2 2 0 00-1-1 1 1 0 001 1zM104 91l-1-1v1zM109 70v-2a7 7 0 010 1 3 3 0 000 1zM111 75v1a3 3 0 001 1 6 6 0 00-1-2zM86 74z"/>
      <path class="cls-1" d="M98 93v-5c1-2 2-2 4-2l2 4v-4c1 1 1-2 2-1l-1-3v-1c-2-2-1 2-2 2l-1-3c0 2-4-1-2 5l-2-2c1 3-1 3-2 3s-2 0-1 4a3 3 0 002-3zM108 71h-1 1zM125 91l2 5c-2 2-3 1-5 2a2 2 0 010-2l-4 3s-2-1-2-3v1-2s-1 0 0 0c-1-1-3-6-1-6 2 4-1 1 1 5l-1-2 2 2 1-2c1-1 1 4 1 3l-1-5 2 1c1-2-3-9-2-12l4 7c0 1-1 4-2 3 3 4-1 1 1 5 0-2 1-3 2-2l-1 1c1 0 0-5 2-3l1 2v-1zm0 1h-1 1zM191 10v1a1 1 0 000-1zM132 26zM136 7V6v1zM187 11a3 3 0 010 1zM157 13a6 6 0 000 1 2 2 0 000-1zM136 7zM124 13zM129 26a2 2 0 000 1zM113 21l-1 1a1 1 0 001-1zM126 24zM198 24h1zM198 16zM166 19a7 7 0 011 2l-1-2zM206 55l-1-2a5 5 0 001 2zM205 53v-1 1zM175 60a2 2 0 00-1 0h1zM199 16c-1-1 1-4-1-4-1-4 1-2 1-3l-1-4-1 2 1-3-1-4c-2 2-3 4-3 9 1-1 2-2 3-1v3c-1-2-1 0-2 0l2 1c2 2 2 3 1 4h1zM206 44zM132 84v1a4 4 0 000-1zM200 30zM136 83zM117 15h-1 1zM136 83zM152 66l-1-1a2 2 0 001 1zM146 62zM161 5zM136 83a10 10 0 010 1 9 9 0 000-1zM153 48v1zM155 50v1c1-2 2-1 2-4l-3-4h-2c2 2 1 3 1 4l-1-3-1 1h1l1 3c1-2 1 4 2 2zM155 51a3 3 0 000 1v-1zM164 54a4 4 0 000-1v1zM112 65c0 1 2 2 1 0l-1-1zM179 34h-1 1zM154 42a4 4 0 000 1 3 3 0 000-1zM180 40a19 19 0 012 2v-2h-2zM182 40z"/>
      <path class="cls-1" d="M111 64l-1-1a1 1 0 010 1 3 3 0 000-1h-1v6l-1 2v-2c-1-1-3-5-3-1h1v6c-2-3 0-3-1-5 0 3-4-4-3 1-1-3-2-8-3-7l2 5c0 2-2 0-1 2v-2c-3-4-2 4-2 6-1 2-3 0-4 1l-3-7v8c2 1 0-3 1-4l2 5c-1-1-2 3-4 0v-1c-1-2-3-10-4-4v1c-2 0-2-4-3-1v-1c-1-1-1 3-2 4v-5c-2-1-3 4-3 8l-1-1a15 15 0 000-6c-1 0 0 2-1 1l-1-6c-2-2 1 7-1 1v5l-1-2-1 3 1 2-1 3c-1-5-2 2-3-5a21 21 0 01-3 3 12 12 0 00-2 2 5 5 0 00-1 2l-2-5c-1 1-1 7-3 6v-2h-4v-2l-1 3v-2c-2-1-3 1-4 2s-2 4-3 5v-6h-1l-1 4a6 6 0 01-1-2c-2-4 0 7-3 6v-8l-1-3v-3c-1-2 0 3-1 0v-2c-1-1-1 1-1 2-1-7 2-7 3-9l1 2h2c-1-3-1-2-2-2v-2c1 3 3 0 5 3v-4-2l2 3a11 11 0 012-4l1-1a13 13 0 001 3h1l1 1a21 21 0 011-5 19 19 0 011-4v4a5 5 0 00-1 3l2-1-1 5c2 0 1-3 2-5l1 2-1-3a1 1 0 001 1v-1l1-1-2-4v2l-1-3a6 6 0 001 0 4 4 0 000-1 3 3 0 001-1l1 3 3-1v2c1 0 2-2 3 1l1-10c0-3 4 4 4-1a34 34 0 010 4c1 0 0-4 2-1-2 0 0 3 0 4a3 3 0 001-2c-1 0 0-5-1-3 0-4 1-5 2-4a5 5 0 002 3l-1-3 1 4c1-4 4 1 3-6 2 2-1 3 1 6 0 3-2 0-1 4l1 3 1-3h-1a4 4 0 011-2 3 3 0 011-1 11 11 0 003 0l1-10c0 2 2 2 2 6 1 2 2-1 1-2l-1-1c0-2 1-2 1-1v1c2 1 0-2 1-3 1 2 1 0 2 1v-4c0 3 1 1 2 3v-4l3 4c2 1 0-8 3-5v3l2-1v-9c-1-2-2-1-2 0v3c-1-4-1 1-1 0-1-6 1-5 2-8-2-4-4-4-5-3l1 1h-1l2 3-2 1 1 3c-1-3 0 2-1 2l1 2-4-4c2 4-1 1 0 4v4c-2-4 0-4-2-6-2 0-1 4-2 5l1-6-1-1 2-2c0 4 1 1 2 4l-1-5h-2c2 1-1-10 1-8l2 5a6 6 0 001-2l-1-4c1-2 3 6 3 2 0-3-1-1-1-1 1-3 4 3 6 5a32 32 0 01-1-6l1 6c1 1 1-1 1-2l-1-5 1 3s2 4 1 0v8h1l-1 1a18 18 0 012 6v-1c-1-1-1 0-1 1l2 4 1-1-1-12c1-1 2 1 3 3l-1-3 3 4h-1l1 1a19 19 0 001-2c-1 4 1 5 2 10l1-2v-3c1 3 1-1 1 0h3l-2-9-1-4-1-2c-1 2-2 2-1 6 1 2 0-1 1 0 0 2-1 2-2 2l-1-2v-3c-1-2-1 1-2 0v4l-1-5 1-3-1-2 1-1v2c1-3 2 6 3 2 0-4 0-5 2-4-1 1 1 2 1 5 1 1 1-2 1-4v4c1 4 1-1 2 3 3-1-2-15 3-10l1 2c1-3 3-1 4-3l3 4a14 14 0 001 6l-4-5a10 10 0 001 3l-1-1 1 3-2-3v6l-1-7-1-3c1 4-1 1-1 4v-2l-2-1v6h4v7l3 10c0-4 1-1 2-4l-2-3v-2 1l3 1v3l2 2-2-5c2 0 4 2 5 5h1c-2-3-1-5-1-9l2 3a51 51 0 00-4-11l1 8-1 4v-3c-1-1-1 3-2-1l1-3-1-2c-1-3 1 4 2 1l-1-3c-1-2-1 2-3-3 0-3 4 5 4 0 1 1 1-3 1-5 1 2 1-1 1-1l1 2V7c1 3-1 0-1 0l1 3c-2-3-1 2-1 5 0-3 3 0 1-6l2 3v-1l1 6a5 5 0 01-1-1l-1 3v-2c-1 1-2 2-1 5a7 7 0 005 0l-3-17c0-1 2-2 3 0v1l1-1 2 4 1-2c0 2-1 3-2 3a2 2 0 000-1c-1-1-1 4-2 0l-1-3c-2-1-1 3-1 4l2 4c1-1 1-3 2-2-1 1-1 4-2 2l3 10c-1-2 1-3-1-6l1-5 1-1a12 12 0 001 4v-5c0 3 1 2 2 3l-1-6c-2-1 0 2-1 2V3c1 0 1 7 2 4l-2-4 4 2h2a33 33 0 003 8l-3 1 1-5c-2-6-1 5-3-2-3-2 0 7-2 4v4c2 5 2-1 4 0a4 4 0 000 2l1-2c0-3 2 2 2 3 1 0 2 0 1-2l2 3-1-3c0-1 1 1 1-1l-1-3-2-1V8c0 3 1 1 2 4v-2 1c1 1 0-1 1-1-1-2-2-4-2-1a12 12 0 011-5l2 1c-1 2 3 9 0 8 0-1 0-1 0 0-1-4-1 0-1 2 1 2 0 3 2 4v-4l1 5h2v1c1 3 1-1 2 0 0-2 3-1 0-6 2 3 1-1 2-2l-2-1V4a18 18 0 011 4 9 9 0 003 0 2 2 0 001-1 5 5 0 001-3c1 0 3 6 4 3 0-1-2-4 0-3 0 0 0 4 1 3 0-4 3 1 3-2 1 1 2 0 2 3l-2 2-1-3c-2-2 0 2-2 1l2 2c1 4-2 3 0 7 2 0 0-8 2-5v6l1 1v-3c3 4 0-4 1-7l-2-8 2 4c-1 3 1 4 1 8l2 6v-5a5 5 0 010 2l1-2v1c1 2 0-3 1-1v-4l-4-5 1 5h1v1l-1-1-1-7h1a12 12 0 002 4l3 3h-1c0 3 1 3 2 4v-2a2 2 0 000 2V9l2 5c1 2 3 6 3 4a2 2 0 011-2 1 1 0 000 1l1 2c0 3-2-2-2 2l1 3v3l1-1a9 9 0 011 3l-1-1c-1-3 0 3-1 3l-1-1c0 3-2-1-2 4v-2l-1 8v2l-1 4a3 3 0 001 1v-4c1 2 2-1 2 0v-5l1 3c1 0-1-2 0 0 0 2 2 1 1 4 1-2 3-2 3-5l-1-1 3 1-1 1 1 2v-6c-1-2 1 0 2 0 1 4-1 1-1 3-1 1 1 3 1 5l1-1v1c1 4-1 3-1 7a9 9 0 000-1c-1-2-2-1-2 0v2l2 3-2 1-1-4c0 1-2-3-2-1l1 6c0 2 0 2-1 0v-2a2 2 0 00-1 1v-2l-1 1 1 8c-1-2-1 0-1 1v-1c-1-2-2 0-2 2-1-2 0-12-2-10-2 1 0 6 0 8a6 6 0 000-1v3h1l-1 2c-1-4-1-1-2-3s-1 1-1 4a6 6 0 00-1-2c-1 1-1 2-2 1h1c0-3-2-1-1-4v1a4 4 0 000-3l-2-3-2-3a6 6 0 000 1c-2-1-3 2-5 2 2 8-3 4-2 9a44 44 0 00-2-8v-3l2 4c1-1-1-3-2-6l-2 8v-1l-1 2c1 1 3 5 1 4-1-2-1 0-2 0v3l-4-8-1 7c-1-2-3-2-2-4-1 2 3 13-1 7v-2c-2 1-3 6-5 4-2-7-5-7-7-14v3h-1c2 2 2 8 3 5 1 5 1 9-1 9l-1-3 2 1v-3c-3-1-2-8-5-6v-1 3c-3-5 0-4-2-7 1-3 2-4 0-8-2-1 1 7-1 6l-1-1 1 5-1-1v9c2-4 3 2 5-1 0 1-2 3-1 7v-3c-1 2-1 4-2 3v-2c-1 2-4-4-3 1h1l-2 1v5c-1-1-2-1-2-3-2-2-1 2-1 3-3-3 0-2-1-6-2-1-3 1-3 4a4 4 0 011 2l-2-1 1 2a6 6 0 01-1-4c-1 0-1 4-2 1 0-2 2-1 2-2-1 2-4-6-5-2l-1-3c-1 1 1 4 1 6l2 2 1 2-2-2 1 4c-1-4-2-6-3-5 2 3 2 2 3 7 0 4-2-4-2 0l-1-3v4l-1-9 1-2-2-2v-5c-3-2 0 5-2 5l1 2v4-1c-1-2-1 0-1 1s4 10 2 11l-1-2-5-26a10 10 0 01-7 0c-2-5 0-5-1-7l2 1c0 2-2 1 0 4 1-2 2 0 3-4-2-5-2 1-4-2l1-2-4-1v2a6 6 0 012 0v8zM45 79a13 13 0 000-1 4 4 0 010 1zm82-33l-5-1c5 6 8 11 4 12v1a2 2 0 002 0l-1-14c0-2 0 1-1 0zm4 11v-2 1a5 5 0 010 1zm0-3v-1zm-15 2h-1a1 1 0 001 0zm2 3v-2l-1-1a14 14 0 001 3zm8 7l-1-7a2 2 0 00-1-1h-1a8 8 0 011 1l1 4c-2-5 0 3-1 2 1 3 2 2 2 1zm63-29v5c-1-1-3-6-3-1a32 32 0 01-3-5 2 2 0 011 0c1-7 4 7 5 1zm-15-2a3 3 0 000-1c0 7-2 10-3 10a16 16 0 004 5v3l-1-2v3l2 3 1-7-2-2 2-1c0-1-2-3-1 0l-1-5c0-3 2-1 3 0l1 4c1 1-1-5 1-3-1 1 1 4 1 4l2 4c-1-5 1 3 1-2l1 4-1-9-1 5v-7l-1-1a7 7 0 000-2v-2l-3-1v-2c-1-2-1 0-1 1-1 1-1 3-1 1l-1-2a4 4 0 01-2 2zm-33 5c3 7 5 12 8 10l-1 1c3 3 2-7 5-3v9l1-2c0 3 1 1 1 1l1 4h-2c1 0-2-5-3-3 1 2 2 1 3 6 0-2 1 0 2-1-1 2 1 4 1 6v-1c1 1-1 3 1 6 0-2 2 0 1-3h1v-3l-1-2v4l-1-4c-1-2-1 2-2-2h1l-1-6c0-1 2 2 2 0l-1-5c2 5 4 3 5 2v-2c-1-2-1 1-2-2l1-1 1 1v-2 5c1 1 1 2 2 1a2 2 0 000 1v-5c0-4-2-3-3-7l2-2a10 10 0 001 3l2 2c-2-4 0-3 0-6l1 2c0 3 1 2 2 2v-2a7 7 0 01-1-4v-1c-1 0-4-3-4 0v-1c-2-3-1 5-3 0l-2-3v2-1l-1 1v7a9 9 0 010 3s0 1 0 0l-2-2 1-1a15 15 0 00-2-6l-1-2v3c-1 2-5-4-5 1 0-3-3-2-1-4-2-3 0 4-1 4v-3c-3-1-2 7-4 6l-1-2zm-2 5l-1 1-1 3c1 1 3 4 2 5l-1-3c-1-1-3-3-1 1 0-4 2 6 2 2l-1 4a10 10 0 00-2-6l-2 1 2 5h-1a3 3 0 000-2l-2-3-1 1a6 6 0 011 1v2l1 3c-1-3-1-1-1 0l2 3c0 1-2-2-1 1 2 1 2 0 3-1l-1-3c1-2 2 4 3 4 0-3 3-1 1-6 1 2 2 4 2 2v-7s0 2-1 0v-1l-1-2-1-5zm-28-20zM199 24v-3 3zM201 26l-1-1z"/>
      <path class="cls-1" d="M206 43l1-3c2 6-1 2 1 7v-2-3l-1-2-1 3zM208 50v-1 1zM179 3c0-2 0 0 0 0s0 1 0 0zM50 37a5 5 0 00-1 1 1 1 0 00-1 1l1 2v4-3l-1-3a1 1 0 011-1 7 7 0 011-1zM165 20l2-7c-3-3-1 7-3 3zM161 5c2 3 1 4 2 7V8zM185 61v2-2zM157 10l-1-1V8l1 2zM156 8v1zM187 69h1v-1l-1 1zM176 52v-2 2zM152 9v2-2zM174 63c1 2-1 1 1 3l-1-3zM161 47zM161 47h1c-1-2-1-1-1 0zM158 48c0 2 0 1 0 0v-2 2zM132 6l2 4V5l-2 1zM134 5a3 3 0 001 0h-1zM168 70v3h1l-1-3zM130 6h1c-1-2-1 0-1 0zM146 46h2c-1 0-2-4-2 0zM130 15a7 7 0 011 3l-1-3zM144 46l1 1v-2l-1 1zM156 76c0-3-3-6-2-8-3-2 1 3 0 3l2 5z"/>
      <path class="cls-1" d="M154 71h-1a1 1 0 001 0zM138 59a5 5 0 000-1 6 6 0 000 1zM150 75v-4c0 2-2 3 0 6 1 1 1 0 1-2zM117 11V9h-1l1 2zM116 9zM140 56l1-1c-1 0-2-1-1 1zM115 17l1-1-1 1zM110 12l-1-1v2h1v-1zM137 84l-1-4h-1c2 3 1 0 2 1zM85 25c-1-2 1-1 1 1l1 3-1-5c2 2 1 6 1 8l2-3a9 9 0 01-2-3v-2h1a6 6 0 01-1-4 2 2 0 000-1v-1a11 11 0 000-1h-1l-1-1h-1c2 5 0 1 0 3l-1 1a8 8 0 010-3l-1 3-1 1a6 6 0 01-1-1 4 4 0 000 1h-2l-2 1-5 2 2 2 1 4h-1l2 5c2 2 0-6 2-5 0 2 0 4 1 3v1c1-3 2 4 1-2l1 3a4 4 0 012-3v1c0-4 0-1 2-3v3c1 2 0-2 1-2v3l1-6-1-3zM89 29zM70 24h1a1 1 0 00-1 0zM90 21v-3h-2l1 4z"/>
      <path class="cls-1" d="M87 16a12 12 0 010 2h1a4 4 0 00-1-2zM106 78v2-2zM100 75c1 1 1 0 1-1l-1 1zM106 93v2-2zM67 37v0zM73 33c-3-3 0-3-1-8l-1 2v-1h-1a21 21 0 011 5c-2-1-1-3-3-5l-1 1v0l-6 2c-1 2 1 4 1 7 2 0 4 2 3-2a6 6 0 001 2v-4l-1-1c0-3 2-3 3-1-1 1 1 5-2 4l1 3c2-2 4 0 6-4zM51 40zM52 41v-5l-2 1 1 3v-1zM53 33c-1 2 0 5 1 7-1 1-2-4-1 0l1 1a2 2 0 000-1zM60 33v2h1l-1-2zM60 35h-1l1 2zM57 34a2 2 0 00-1 0zM58 35v-1h-1a8 8 0 011 1zM59 35c0-3-1-5-2-4l1 3zM99 91v2-2zM94 90a10 10 0 000 2 3 3 0 000-2zM95 108c-1-3 1-4-1-5v-4l1 4-1-5v-6a1 1 0 01-1 0h-1l-1 3 3 15c0 1 2 1 1-2zM98 113v-1c0-1 0-1 0 0v1zM80 73v3-1-2zM81 74l-1 1 1-1zM79 72l1 1a1 1 0 00-1-1zM55 33h-1 1zM39 43v-1 1zM44 86a8 8 0 010 1 6 6 0 000-1zM44 87c0 1-1-1-1 1v1l1-2z"/>
    </g>
  </g>
</svg>
